<svg width="16" height="16" viewBox="0 0 16 16" fill="none" xmlns="http://www.w3.org/2000/svg">
<path d="M10.3213 4.98387C9.94122 2.64335 9.04467 1 8.00131 1C6.95796 1 6.0614 2.64335 5.68129 4.98387H10.3213ZM5.48467 7.5C5.48467 8.08185 5.51613 8.64012 5.57118 9.17742H10.4288C10.4839 8.64012 10.5153 8.08185 10.5153 7.5C10.5153 6.91815 10.4839 6.35988 10.4288 5.82258H5.57118C5.51613 6.35988 5.48467 6.91815 5.48467 7.5ZM13.9967 4.98387C13.2469 3.20423 11.7291 1.82823 9.85471 1.27258C10.4944 2.15847 10.9348 3.49254 11.1655 4.98387H13.9967ZM6.14529 1.27258C4.27354 1.82823 2.75308 3.20423 2.00595 4.98387H4.83716C5.06524 3.49254 5.50565 2.15847 6.14529 1.27258ZM14.2772 5.82258H11.2703C11.3254 6.37298 11.3568 6.93649 11.3568 7.5C11.3568 8.06351 11.3254 8.62702 11.2703 9.17742H14.2746C14.4187 8.64012 14.5 8.08185 14.5 7.5C14.5 6.91815 14.4187 6.35988 14.2772 5.82258ZM4.6458 7.5C4.6458 6.93649 4.67725 6.37298 4.73231 5.82258H1.72545C1.58389 6.35988 1.5 6.91815 1.5 7.5C1.5 8.08185 1.58389 8.64012 1.72545 9.17742H4.72968C4.67725 8.62702 4.6458 8.06351 4.6458 7.5ZM5.68129 10.0161C6.0614 12.3567 6.95796 14 8.00131 14C9.04467 14 9.94122 12.3567 10.3213 10.0161H5.68129ZM9.85733 13.7274C11.7291 13.1718 13.2495 11.7958 13.9993 10.0161H11.1681C10.9374 11.5075 10.497 12.8415 9.85733 13.7274ZM2.00595 10.0161C2.7557 11.7958 4.27354 13.1718 6.14791 13.7274C5.50827 12.8415 5.06786 11.5075 4.83716 10.0161H2.00595Z" fill="#555555"/>
</svg>
